<svg xmlns="http://www.w3.org/2000/svg" viewBox="0 0 900 200" width="900" height="200" role="img" aria-label="From patient to insight: a PET/CT scan produces raw data, the data is corrected, reconstructed into an image, the image is sharpened, and a lesion is found and measured.">
<title>From patient to insight</title>
<style>
:root{--bg:#f3f6fb;--line:#c3d0e3;--ink:#1b2740;--mute:#6b7a93;--body:#d3deee;--lung:#f8fafd;--blue:#3b6fb0;--red:#d9606a;--yellow:#e0a93a;--green:#2fa77c;--det:#9fb2cf;--noise:#7d8fab}
@media (prefers-color-scheme:dark){:root{--bg:#111a2b;--line:#2c3d5c;--ink:#e6edf7;--mute:#8b9bb5;--body:#2d3d5b;--lung:#16213a;--blue:#6fa8dc;--red:#ef7a85;--yellow:#f0c15a;--green:#5cd1a2;--det:#4a5f85;--noise:#8fa3c4}}
text{font-family:-apple-system,'Segoe UI',Helvetica,Arial,sans-serif;fill:var(--ink)}
.panel{fill:var(--bg);stroke:var(--line)} .ln{stroke:var(--line);fill:none}
.body{fill:var(--body)} .lung{fill:var(--lung)} .det{fill:var(--det)}
.red{fill:var(--red)} .yellow{fill:var(--yellow)} .nz{fill:var(--noise)}
.tr{fill:none;stroke-width:2;stroke-linecap:round} .sr{stroke:var(--red)} .sy{stroke:var(--yellow)}
.gan{animation:spin 2.4s linear infinite}
@keyframes spin{to{transform:rotate(360deg)}}
.lor{stroke-width:1.4;opacity:0;animation:fl 1.2s linear infinite}
@keyframes fl{0%{opacity:0}10%{opacity:.95}45%,100%{opacity:0}}
.sweep{fill:var(--green);opacity:.28;animation:sw 1.8s ease-in-out infinite}
@keyframes sw{0%{transform:translateX(-60px)}100%{transform:translateX(60px)}}
.tagbox{fill:var(--bg);stroke:var(--green)} .tagt{fill:var(--green);font-size:10px;font-weight:600}
.lab{font-size:13.5px;font-weight:700}
.arw{stroke:var(--mute);stroke-width:1.5;fill:none}
.ring{fill:none;stroke:var(--green);stroke-width:2;stroke-dasharray:4 3;opacity:0;animation:ring 21.0s linear infinite}
.tg1{opacity:0;animation:tg1 21.0s linear infinite} .tg2{opacity:0;animation:tg2 21.0s linear infinite}
@keyframes st0{0%,0.00%{opacity:0;transform:translateY(10px)}2.38%{opacity:1;transform:none}13.33%{opacity:1}16.19%,94.29%{opacity:.38}98.10%,100%{opacity:0}}@keyframes lb0{0%,0.00%{opacity:0}2.38%,13.33%{opacity:1}16.19%,94.29%{opacity:.45}98.10%,100%{opacity:0}}@keyframes ar0{0%,11.43%{opacity:0}13.33%,94.29%{opacity:1}98.10%,100%{opacity:0}}@keyframes st1{0%,13.33%{opacity:0;transform:translateY(10px)}15.71%{opacity:1;transform:none}26.67%{opacity:1}29.52%,94.29%{opacity:.38}98.10%,100%{opacity:0}}@keyframes lb1{0%,13.33%{opacity:0}15.71%,26.67%{opacity:1}29.52%,94.29%{opacity:.45}98.10%,100%{opacity:0}}@keyframes ar1{0%,24.76%{opacity:0}26.67%,94.29%{opacity:1}98.10%,100%{opacity:0}}@keyframes st2{0%,26.67%{opacity:0;transform:translateY(10px)}29.05%{opacity:1;transform:none}40.00%{opacity:1}42.86%,94.29%{opacity:.38}98.10%,100%{opacity:0}}@keyframes lb2{0%,26.67%{opacity:0}29.05%,40.00%{opacity:1}42.86%,94.29%{opacity:.45}98.10%,100%{opacity:0}}@keyframes ar2{0%,38.10%{opacity:0}40.00%,94.29%{opacity:1}98.10%,100%{opacity:0}}@keyframes st3{0%,40.00%{opacity:0;transform:translateY(10px)}42.38%{opacity:1;transform:none}53.33%{opacity:1}56.19%,94.29%{opacity:.38}98.10%,100%{opacity:0}}@keyframes lb3{0%,40.00%{opacity:0}42.38%,53.33%{opacity:1}56.19%,94.29%{opacity:.45}98.10%,100%{opacity:0}}@keyframes ar3{0%,51.43%{opacity:0}53.33%,94.29%{opacity:1}98.10%,100%{opacity:0}}@keyframes st4{0%,53.33%{opacity:0;transform:translateY(10px)}55.71%{opacity:1;transform:none}66.67%{opacity:1}69.52%,94.29%{opacity:.38}98.10%,100%{opacity:0}}@keyframes lb4{0%,53.33%{opacity:0}55.71%,66.67%{opacity:1}69.52%,94.29%{opacity:.45}98.10%,100%{opacity:0}}@keyframes ar4{0%,64.76%{opacity:0}66.67%,94.29%{opacity:1}98.10%,100%{opacity:0}}@keyframes st5{0%,66.67%{opacity:0;transform:translateY(10px)}69.05%{opacity:1;transform:none}80.00%{opacity:1}82.86%,94.29%{opacity:.38}98.10%,100%{opacity:0}}@keyframes lb5{0%,66.67%{opacity:0}69.05%,80.00%{opacity:1}82.86%,94.29%{opacity:.45}98.10%,100%{opacity:0}}@keyframes ar5{0%,78.10%{opacity:0}80.00%,94.29%{opacity:1}98.10%,100%{opacity:0}}@keyframes st6{0%,80.00%{opacity:0;transform:translateY(10px)}82.38%,94.29%{opacity:1;transform:none}98.10%,100%{opacity:0}}@keyframes lb6{0%,80.00%{opacity:0}82.38%,94.29%{opacity:1}98.10%,100%{opacity:0}}@keyframes ring{0%,82.86%{opacity:0;transform:scale(2)}85.71%,94.29%{opacity:1;transform:scale(1)}98.10%,100%{opacity:0}}@keyframes tg1{0%,86.19%{opacity:0;transform:translateY(4px)}88.57%,94.29%{opacity:1;transform:none}98.10%,100%{opacity:0}}@keyframes tg2{0%,89.52%{opacity:0;transform:translateY(4px)}91.90%,94.29%{opacity:1;transform:none}98.10%,100%{opacity:0}}
.st0{opacity:0;animation:st0 21.0s ease-out infinite} .lb0{opacity:0;animation:lb0 21.0s linear infinite} .ar0{opacity:0;animation:ar0 21.0s linear infinite}.st1{opacity:0;animation:st1 21.0s ease-out infinite} .lb1{opacity:0;animation:lb1 21.0s linear infinite} .ar1{opacity:0;animation:ar1 21.0s linear infinite}.st2{opacity:0;animation:st2 21.0s ease-out infinite} .lb2{opacity:0;animation:lb2 21.0s linear infinite} .ar2{opacity:0;animation:ar2 21.0s linear infinite}.st3{opacity:0;animation:st3 21.0s ease-out infinite} .lb3{opacity:0;animation:lb3 21.0s linear infinite} .ar3{opacity:0;animation:ar3 21.0s linear infinite}.st4{opacity:0;animation:st4 21.0s ease-out infinite} .lb4{opacity:0;animation:lb4 21.0s linear infinite} .ar4{opacity:0;animation:ar4 21.0s linear infinite}.st5{opacity:0;animation:st5 21.0s ease-out infinite} .lb5{opacity:0;animation:lb5 21.0s linear infinite} .ar5{opacity:0;animation:ar5 21.0s linear infinite}.st6{opacity:0;animation:st6 21.0s ease-out infinite} .lb6{opacity:0;animation:lb6 21.0s linear infinite} .ar6{opacity:0;animation:ar6 21.0s linear infinite}
@media (prefers-reduced-motion:reduce){*{animation-play-state:paused!important;animation-delay:-19.4s!important}}
</style>
<defs><filter id="bl" x="-20%" y="-20%" width="140%" height="140%"><feGaussianBlur stdDeviation="2.6"/></filter><filter id="nzf"><feTurbulence type="fractalNoise" baseFrequency="1.1" numOctaves="2" seed="5"/><feColorMatrix type="saturate" values="0"/></filter>
<clipPath id="cb0"><rect x="24" y="50" width="84" height="84" rx="8"/></clipPath><clipPath id="cc0"><circle cx="66" cy="92" r="42"/></clipPath>
<clipPath id="cb1"><rect x="152" y="50" width="84" height="84" rx="8"/></clipPath><clipPath id="cc1"><circle cx="194" cy="92" r="42"/></clipPath>
<clipPath id="cb2"><rect x="280" y="50" width="84" height="84" rx="8"/></clipPath><clipPath id="cc2"><circle cx="322" cy="92" r="42"/></clipPath>
<clipPath id="cb3"><rect x="408" y="50" width="84" height="84" rx="8"/></clipPath><clipPath id="cc3"><circle cx="450" cy="92" r="42"/></clipPath>
<clipPath id="cb4"><rect x="536" y="50" width="84" height="84" rx="8"/></clipPath><clipPath id="cc4"><circle cx="578" cy="92" r="42"/></clipPath>
<clipPath id="cb5"><rect x="664" y="50" width="84" height="84" rx="8"/></clipPath><clipPath id="cc5"><circle cx="706" cy="92" r="42"/></clipPath>
<clipPath id="cb6"><rect x="792" y="50" width="84" height="84" rx="8"/></clipPath><clipPath id="cc6"><circle cx="834" cy="92" r="42"/></clipPath>
</defs>
<g class="st0"><rect class="det" x="20" y="110" width="92" height="4" rx="2"/><rect class="det" x="60" y="114" width="12" height="14" opacity=".6"/><circle class="body" cx="32" cy="96" r="9"/><rect class="body" x="42" y="94" width="66" height="15" rx="7"/><circle class="red" cx="64" cy="100" r="2.6"/><circle class="red" cx="64" cy="100" r="6" opacity=".25"/><circle class="yellow" cx="80" cy="103" r="2.4"/><circle class="yellow" cx="80" cy="103" r="5.5" opacity=".25"/></g>
<text class="lab lb0" x="66" y="168" text-anchor="middle">Patient</text>
<path class="arw ar0" d="M124.0 92 L135.0 92 M131.0 88 L135.0 92 L131.0 96"/>
<g class="st1"><circle cx="194" cy="92" r="46" class="panel"/><rect class="det" x="235.0" y="88.5" width="4" height="7" rx="1" transform="rotate(90 237.0 92.0)"/><rect class="det" x="233.9" y="98.1" width="4" height="7" rx="1" transform="rotate(103 235.9 101.6)"/><rect class="det" x="230.7" y="107.2" width="4" height="7" rx="1" transform="rotate(116 232.7 110.7)"/><rect class="det" x="225.6" y="115.3" width="4" height="7" rx="1" transform="rotate(129 227.6 118.8)"/><rect class="det" x="218.8" y="122.1" width="4" height="7" rx="1" transform="rotate(141 220.8 125.6)"/><rect class="det" x="210.7" y="127.2" width="4" height="7" rx="1" transform="rotate(154 212.7 130.7)"/><rect class="det" x="201.6" y="130.4" width="4" height="7" rx="1" transform="rotate(167 203.6 133.9)"/><rect class="det" x="192.0" y="131.5" width="4" height="7" rx="1" transform="rotate(180 194.0 135.0)"/><rect class="det" x="182.4" y="130.4" width="4" height="7" rx="1" transform="rotate(193 184.4 133.9)"/><rect class="det" x="173.3" y="127.2" width="4" height="7" rx="1" transform="rotate(206 175.3 130.7)"/><rect class="det" x="165.2" y="122.1" width="4" height="7" rx="1" transform="rotate(219 167.2 125.6)"/><rect class="det" x="158.4" y="115.3" width="4" height="7" rx="1" transform="rotate(231 160.4 118.8)"/><rect class="det" x="153.3" y="107.2" width="4" height="7" rx="1" transform="rotate(244 155.3 110.7)"/><rect class="det" x="150.1" y="98.1" width="4" height="7" rx="1" transform="rotate(257 152.1 101.6)"/><rect class="det" x="149.0" y="88.5" width="4" height="7" rx="1" transform="rotate(270 151.0 92.0)"/><rect class="det" x="150.1" y="78.9" width="4" height="7" rx="1" transform="rotate(283 152.1 82.4)"/><rect class="det" x="153.3" y="69.8" width="4" height="7" rx="1" transform="rotate(296 155.3 73.3)"/><rect class="det" x="158.4" y="61.7" width="4" height="7" rx="1" transform="rotate(309 160.4 65.2)"/><rect class="det" x="165.2" y="54.9" width="4" height="7" rx="1" transform="rotate(321 167.2 58.4)"/><rect class="det" x="173.3" y="49.8" width="4" height="7" rx="1" transform="rotate(334 175.3 53.3)"/><rect class="det" x="182.4" y="46.6" width="4" height="7" rx="1" transform="rotate(347 184.4 50.1)"/><rect class="det" x="192.0" y="45.5" width="4" height="7" rx="1" transform="rotate(360 194.0 49.0)"/><rect class="det" x="201.6" y="46.6" width="4" height="7" rx="1" transform="rotate(373 203.6 50.1)"/><rect class="det" x="210.7" y="49.8" width="4" height="7" rx="1" transform="rotate(386 212.7 53.3)"/><rect class="det" x="218.8" y="54.9" width="4" height="7" rx="1" transform="rotate(399 220.8 58.4)"/><rect class="det" x="225.6" y="61.7" width="4" height="7" rx="1" transform="rotate(411 227.6 65.2)"/><rect class="det" x="230.7" y="69.8" width="4" height="7" rx="1" transform="rotate(424 232.7 73.3)"/><rect class="det" x="233.9" y="78.9" width="4" height="7" rx="1" transform="rotate(437 235.9 82.4)"/><ellipse class="body" cx="194" cy="92" rx="30.0" ry="22.0"/><ellipse class="lung" cx="183.0" cy="90.0" rx="8.0" ry="12.0"/><ellipse class="lung" cx="205.0" cy="90.0" rx="8.0" ry="12.0"/><circle class="det" cx="194" cy="105.0" r="2.6"/><circle class="red" cx="203.0" cy="86.0" r="2.8" opacity="1"/><circle class="yellow" cx="180.0" cy="98.0" r="2.8" opacity="1"/><line class="lor sr" x1="161.3" y1="70.8" x2="232.7" y2="96.8" style="stroke:var(--red);animation-delay:0.0s"/><line class="lor sy" x1="170.1" y1="61.2" x2="188.7" y2="130.6" style="stroke:var(--yellow);animation-delay:-0.3s"/><line class="lor sr" x1="221.3" y1="64.2" x2="171.3" y2="123.7" style="stroke:var(--red);animation-delay:-0.6s"/><line class="lor sy" x1="230.9" y1="79.5" x2="157.7" y2="106.1" style="stroke:var(--yellow);animation-delay:-0.9s"/><g style="transform-origin:194px 92px" class="gan"><circle class="yellow" cx="194" cy="55" r="3.5"/><path d="M194 55 L172 127 L216 127 Z" fill="var(--yellow)" opacity=".13"/><path d="M170 126 Q194 133 218 126" fill="none" stroke="var(--yellow)" stroke-width="2.4" stroke-linecap="round"/></g></g>
<text class="lab lb1" x="194" y="168" text-anchor="middle">Scan</text>
<path class="arw ar1" d="M252.0 92 L263.0 92 M259.0 88 L263.0 92 L259.0 96"/>
<g class="st2"><rect class="panel" x="280" y="50" width="84" height="84" rx="8"/><g clip-path="url(#cb2)"><rect x="280" y="50" width="84" height="84" filter="url(#nzf)" opacity=".22"/><circle class="nz" cx="307.9" cy="64.1" r="1.3" opacity="0.27"/><circle class="nz" cx="347.7" cy="59.5" r="1.3" opacity="0.28"/><circle class="nz" cx="322.6" cy="55.0" r="1" opacity="0.44"/><circle class="nz" cx="301.3" cy="96.1" r="0.8" opacity="0.62"/><circle class="nz" cx="291.9" cy="69.9" r="1.3" opacity="0.51"/><circle class="nz" cx="286.9" cy="98.8" r="0.8" opacity="0.69"/><circle class="nz" cx="285.7" cy="120.7" r="1" opacity="0.44"/><circle class="nz" cx="325.3" cy="97.7" r="1.3" opacity="0.62"/><circle class="nz" cx="296.5" cy="98.5" r="1.3" opacity="0.33"/><circle class="nz" cx="289.8" cy="109.0" r="1.3" opacity="0.28"/><circle class="nz" cx="298.5" cy="106.4" r="1" opacity="0.60"/><circle class="nz" cx="319.2" cy="125.9" r="1" opacity="0.38"/><circle class="nz" cx="345.6" cy="107.9" r="0.8" opacity="0.29"/><circle class="nz" cx="306.0" cy="91.6" r="1" opacity="0.58"/><circle class="nz" cx="305.0" cy="130.4" r="0.8" opacity="0.48"/><circle class="nz" cx="295.2" cy="79.4" r="1" opacity="0.44"/><circle class="nz" cx="359.0" cy="58.2" r="1.3" opacity="0.51"/><circle class="nz" cx="352.0" cy="77.1" r="1.3" opacity="0.41"/><circle class="nz" cx="321.7" cy="115.8" r="0.8" opacity="0.63"/><circle class="nz" cx="357.6" cy="89.9" r="1.3" opacity="0.28"/><circle class="nz" cx="340.5" cy="76.8" r="1.3" opacity="0.70"/><circle class="nz" cx="347.8" cy="74.8" r="1" opacity="0.65"/><circle class="nz" cx="309.8" cy="127.3" r="1" opacity="0.33"/><circle class="nz" cx="291.4" cy="56.7" r="1" opacity="0.31"/><circle class="nz" cx="301.8" cy="83.3" r="1" opacity="0.29"/><circle class="nz" cx="317.9" cy="96.0" r="0.8" opacity="0.62"/><circle class="nz" cx="351.1" cy="74.3" r="1" opacity="0.69"/><circle class="nz" cx="336.6" cy="82.4" r="0.8" opacity="0.32"/><circle class="nz" cx="296.1" cy="70.6" r="0.8" opacity="0.26"/><circle class="nz" cx="348.5" cy="66.6" r="1" opacity="0.25"/><circle class="nz" cx="315.5" cy="81.5" r="1.3" opacity="0.39"/><circle class="nz" cx="292.0" cy="120.7" r="1.3" opacity="0.54"/><circle class="nz" cx="341.2" cy="88.5" r="1.3" opacity="0.61"/><circle class="nz" cx="313.4" cy="83.9" r="0.8" opacity="0.47"/><circle class="nz" cx="314.0" cy="67.2" r="0.8" opacity="0.45"/><circle class="nz" cx="290.8" cy="100.1" r="0.8" opacity="0.25"/><circle class="nz" cx="294.1" cy="60.1" r="1" opacity="0.53"/><circle class="nz" cx="287.6" cy="68.6" r="1" opacity="0.32"/><circle class="nz" cx="302.2" cy="79.8" r="1" opacity="0.46"/><circle class="nz" cx="291.2" cy="91.0" r="1" opacity="0.47"/><circle class="nz" cx="306.9" cy="63.5" r="1.3" opacity="0.40"/><circle class="nz" cx="303.2" cy="118.3" r="0.8" opacity="0.48"/><circle class="nz" cx="298.4" cy="128.2" r="1" opacity="0.32"/><circle class="nz" cx="325.5" cy="54.2" r="1.3" opacity="0.38"/><circle class="nz" cx="333.4" cy="59.3" r="1" opacity="0.48"/><circle class="nz" cx="354.7" cy="80.5" r="0.8" opacity="0.49"/><circle class="nz" cx="344.3" cy="78.4" r="0.8" opacity="0.53"/><circle class="nz" cx="345.1" cy="112.7" r="0.8" opacity="0.61"/><circle class="nz" cx="347.5" cy="111.2" r="0.8" opacity="0.34"/><circle class="nz" cx="321.4" cy="110.5" r="0.8" opacity="0.61"/><circle class="nz" cx="319.8" cy="67.5" r="1.3" opacity="0.68"/><circle class="nz" cx="317.8" cy="127.0" r="1" opacity="0.68"/><circle class="nz" cx="311.2" cy="69.6" r="0.8" opacity="0.46"/><circle class="nz" cx="309.0" cy="90.6" r="1.3" opacity="0.63"/><circle class="nz" cx="320.4" cy="104.2" r="1.3" opacity="0.29"/><circle class="nz" cx="334.8" cy="124.8" r="1.3" opacity="0.59"/><circle class="nz" cx="320.2" cy="66.3" r="1.3" opacity="0.40"/><circle class="nz" cx="346.1" cy="129.7" r="1" opacity="0.46"/><circle class="nz" cx="341.5" cy="58.8" r="0.8" opacity="0.33"/><circle class="nz" cx="292.2" cy="64.1" r="1" opacity="0.61"/><circle class="nz" cx="293.7" cy="118.1" r="1" opacity="0.55"/><circle class="nz" cx="310.0" cy="95.9" r="0.8" opacity="0.26"/><circle class="nz" cx="345.9" cy="110.1" r="0.8" opacity="0.49"/><circle class="nz" cx="356.7" cy="86.7" r="0.8" opacity="0.62"/><circle class="nz" cx="298.9" cy="72.1" r="1" opacity="0.48"/><circle class="nz" cx="343.1" cy="78.1" r="1.3" opacity="0.44"/><circle class="nz" cx="292.5" cy="124.8" r="1" opacity="0.65"/><circle class="nz" cx="335.0" cy="117.2" r="1.3" opacity="0.44"/><circle class="nz" cx="355.4" cy="92.1" r="1.3" opacity="0.32"/><circle class="nz" cx="322.8" cy="121.8" r="0.8" opacity="0.52"/><polyline class="tr sr" points="284.0,82.3 285.9,77.2 287.8,75.9 289.7,77.6 291.6,73.6 293.5,72.3 295.4,75.2 297.3,73.5 299.2,72.6 301.1,73.9 303.0,74.1 304.9,68.9 306.8,69.6 308.7,68.7 310.6,69.2 312.5,71.6 314.4,69.4 316.3,75.1 318.2,70.7 320.1,73.0 322.0,77.7 323.9,76.5 325.8,75.1 327.7,76.7 329.6,79.3 331.5,82.4 333.4,82.0 335.3,81.9 337.2,85.0 339.1,88.7 341.0,90.5 342.9,92.1 344.8,93.5 346.7,91.0 348.6,94.1 350.5,95.5 352.4,96.9 354.3,98.0 356.2,101.6 358.1,101.6 360.0,101.7" opacity="0.75"/><polyline class="tr sy" points="284.0,102.2 285.9,103.2 287.8,109.1 289.7,111.9 291.6,111.9 293.5,111.9 295.4,112.8 297.3,113.4 299.2,116.7 301.1,119.4 303.0,116.4 304.9,121.9 306.8,118.2 308.7,121.6 310.6,119.2 312.5,122.2 314.4,123.8 316.3,119.9 318.2,119.6 320.1,118.6 322.0,116.2 323.9,116.8 325.8,115.5 327.7,115.0 329.6,115.0 331.5,111.5 333.4,110.6 335.3,107.5 337.2,109.6 339.1,102.5 341.0,105.3 342.9,99.0 344.8,100.7 346.7,93.7 348.6,92.6 350.5,94.1 352.4,87.5 354.3,88.7 356.2,86.8 358.1,84.8 360.0,81.7" opacity="0.75"/></g></g>
<text class="lab lb2" x="322" y="168" text-anchor="middle">Raw data</text>
<path class="arw ar2" d="M380.0 92 L391.0 92 M387.0 88 L391.0 92 L387.0 96"/>
<g class="st3"><rect class="panel" x="408" y="50" width="84" height="84" rx="8"/><g clip-path="url(#cb3)"><polyline class="tr sr" points="412.0,80.6 413.9,79.3 415.8,78.1 417.7,76.9 419.6,75.9 421.5,74.9 423.4,74.1 425.3,73.3 427.2,72.7 429.1,72.2 431.0,71.8 432.9,71.6 434.8,71.5 436.7,71.5 438.6,71.6 440.5,71.8 442.4,72.2 444.3,72.7 446.2,73.3 448.1,74.1 450.0,74.9 451.9,75.8 453.8,76.9 455.7,78.0 457.6,79.3 459.5,80.6 461.4,81.9 463.3,83.4 465.2,84.9 467.1,86.4 469.0,88.0 470.9,89.6 472.8,91.2 474.7,92.8 476.6,94.4 478.5,96.0 480.4,97.6 482.3,99.1 484.2,100.6 486.1,102.0 488.0,103.4" opacity="1"/><polyline class="tr sy" points="412.0,103.4 413.9,105.5 415.8,107.4 417.7,109.3 419.6,111.1 421.5,112.7 423.4,114.2 425.3,115.6 427.2,116.9 429.1,117.9 431.0,118.9 432.9,119.6 434.8,120.2 436.7,120.6 438.6,120.9 440.5,120.9 442.4,120.8 444.3,120.5 446.2,120.1 448.1,119.4 450.0,118.6 451.9,117.6 453.8,116.5 455.7,115.2 457.6,113.8 459.5,112.2 461.4,110.5 463.3,108.7 465.2,106.8 467.1,104.8 469.0,102.7 470.9,100.6 472.8,98.4 474.7,96.2 476.6,93.9 478.5,91.6 480.4,89.4 482.3,87.1 484.2,84.9 486.1,82.7 488.0,80.6" opacity="1"/><rect class="sweep" x="443" y="50" width="14" height="84"/></g></g>
<text class="lab lb3" x="450" y="168" text-anchor="middle">Clean data</text>
<path class="arw ar3" d="M508.0 92 L519.0 92 M515.0 88 L519.0 92 L515.0 96"/>
<g class="st4"><circle cx="578" cy="92" r="42" class="panel"/><g clip-path="url(#cc4)"><g filter="url(#bl)"><ellipse class="body" cx="578" cy="92" rx="30.0" ry="22.0"/><ellipse class="lung" cx="567.0" cy="90.0" rx="8.0" ry="12.0"/><ellipse class="lung" cx="589.0" cy="90.0" rx="8.0" ry="12.0"/><circle class="det" cx="578" cy="105.0" r="2.6"/><circle class="red" cx="587.0" cy="86.0" r="4.5" opacity="0.75"/><circle class="yellow" cx="564.0" cy="98.0" r="4.5" opacity="0.75"/></g><line x1="528.0" y1="92.0" x2="628.0" y2="92.0" stroke="var(--noise)" stroke-width=".8" opacity=".35"/><line x1="533.0" y1="70.3" x2="623.0" y2="113.7" stroke="var(--noise)" stroke-width=".8" opacity=".35"/><line x1="546.8" y1="52.9" x2="609.2" y2="131.1" stroke="var(--noise)" stroke-width=".8" opacity=".35"/><line x1="566.9" y1="43.3" x2="589.1" y2="140.7" stroke="var(--noise)" stroke-width=".8" opacity=".35"/><line x1="589.1" y1="43.3" x2="566.9" y2="140.7" stroke="var(--noise)" stroke-width=".8" opacity=".35"/><line x1="609.2" y1="52.9" x2="546.8" y2="131.1" stroke="var(--noise)" stroke-width=".8" opacity=".35"/><line x1="623.0" y1="70.3" x2="533.0" y2="113.7" stroke="var(--noise)" stroke-width=".8" opacity=".35"/><rect x="536" y="50" width="84" height="84" filter="url(#nzf)" opacity=".25"/></g><circle cx="578" cy="92" r="42" class="ln"/></g>
<text class="lab lb4" x="578" y="168" text-anchor="middle">Image</text>
<path class="arw ar4" d="M636.0 92 L647.0 92 M643.0 88 L647.0 92 L643.0 96"/>
<g class="st5"><circle cx="706" cy="92" r="42" class="panel"/><g clip-path="url(#cc5)"><ellipse class="body" cx="706" cy="92" rx="30.0" ry="22.0"/><ellipse class="lung" cx="695.0" cy="90.0" rx="8.0" ry="12.0"/><ellipse class="lung" cx="717.0" cy="90.0" rx="8.0" ry="12.0"/><circle class="det" cx="706" cy="105.0" r="2.6"/><circle class="red" cx="715.0" cy="86.0" r="2.8" opacity="1"/><circle class="yellow" cx="692.0" cy="98.0" r="2.8" opacity="1"/><rect class="sweep" x="699" y="50" width="14" height="84"/></g><circle cx="706" cy="92" r="42" class="ln"/></g>
<text class="lab lb5" x="706" y="168" text-anchor="middle">Sharpen</text>
<path class="arw ar5" d="M764.0 92 L775.0 92 M771.0 88 L775.0 92 L771.0 96"/>
<g class="st6"><circle cx="834" cy="78" r="30" class="panel"/><ellipse class="body" cx="834" cy="78" rx="21.599999999999998" ry="15.84"/><ellipse class="lung" cx="826.08" cy="76.56" rx="5.76" ry="8.64"/><ellipse class="lung" cx="841.92" cy="76.56" rx="5.76" ry="8.64"/><circle class="det" cx="834" cy="87.36" r="1.8719999999999999"/><circle class="red" cx="840.48" cy="73.68" r="2.016" opacity="1"/><circle class="yellow" cx="823.92" cy="82.32" r="2.016" opacity="1"/><circle class="ring" cx="840.5" cy="73.7" r="7" style="transform-origin:840.5px 73.7px"/><g class="tg1"><rect class="tagbox" x="784" y="114" width="100" height="17" rx="8.5"/><text class="tagt" x="834" y="126" text-anchor="middle">lesion found</text></g><g class="tg2"><rect class="tagbox" x="784" y="134" width="100" height="17" rx="8.5"/><text class="tagt" x="834" y="146" text-anchor="middle">uptake measured</text></g></g>
<text class="lab lb6" x="834" y="168" text-anchor="middle">Insight</text>
</svg>